<svg width="69" height="69" viewBox="0 0 69 69" fill="none" xmlns="http://www.w3.org/2000/svg">
<path d="M34.8691 47.576C35.9405 47.576 36.8929 47.3695 37.7262 46.9565C38.5834 46.5434 39.2619 45.9021 39.7619 45.0326C40.2619 44.1413 40.5357 42.9892 40.5834 41.576H48.4048C48.3573 44.076 47.7262 46.2608 46.5119 48.1305C45.2976 49.9782 43.6785 51.413 41.6548 52.4347C39.6548 53.4348 37.4286 53.9348 34.9762 53.9348C32.4286 53.9348 30.2024 53.5652 28.2977 52.8261C26.4167 52.0652 24.8572 50.9673 23.6191 49.5326C22.381 48.0978 21.4524 46.3586 20.8333 44.3152C20.2381 42.25 19.9405 39.8913 19.9405 37.2392V34.0435C19.9405 31.413 20.2381 29.0653 20.8333 27C21.4524 24.9348 22.381 23.1848 23.6191 21.7499C24.8572 20.3152 26.4167 19.2282 28.2977 18.4891C30.1787 17.7282 32.3929 17.3478 34.9406 17.3478C37.6548 17.3478 40.0001 17.8696 41.9761 18.9131C43.9763 19.9347 45.5358 21.4348 46.6549 23.413C47.7738 25.3912 48.3573 27.8152 48.4048 30.6847H40.5834C40.5357 29.1631 40.2858 27.8913 39.8334 26.8695C39.3809 25.826 38.7381 25.0434 37.9048 24.5217C37.0952 23.9999 36.0714 23.7391 34.8334 23.7391C33.4762 23.7391 32.3573 23.9782 31.4762 24.4564C30.619 24.9131 29.9524 25.587 29.4762 26.4783C29.0238 27.3695 28.7024 28.4564 28.5119 29.7391C28.3452 31 28.2619 32.4347 28.2619 34.0435V37.2392C28.2619 38.8912 28.3452 40.3586 28.5119 41.6413C28.6786 42.9022 28.9881 43.9782 29.4405 44.8695C29.9167 45.7609 30.5953 46.4347 31.4762 46.8912C32.3573 47.3478 33.4881 47.576 34.8691 47.576Z" fill="#77DD77"/>
<path d="M47.4524 2.5H21.5476C11.0279 2.5 2.5 10.2864 2.5 19.8913V49.1087C2.5 58.7136 11.0279 66.5 21.5476 66.5H47.4524C57.9721 66.5 66.5 58.7136 66.5 49.1087V19.8913C66.5 10.2864 57.9721 2.5 47.4524 2.5Z" stroke="#77DD77" stroke-width="5"/>
</svg>
