<svg width="169" height="51" viewBox="0 0 169 51" fill="none" xmlns="http://www.w3.org/2000/svg">
<path d="M56.418 35.4648V48.0625H54.1523V33.4336H56.2324L56.418 35.4648ZM62.1016 38.2969V39.1367C62.1016 39.9635 62.0267 40.6927 61.877 41.3242C61.7272 41.9557 61.5059 42.4863 61.2129 42.916C60.9264 43.3392 60.5716 43.6582 60.1484 43.873C59.7253 44.0879 59.2305 44.1953 58.6641 44.1953C58.1302 44.1953 57.6647 44.0781 57.2676 43.8438C56.877 43.6094 56.5482 43.2806 56.2812 42.8574C56.0143 42.4342 55.7995 41.9329 55.6367 41.3535C55.4805 40.7676 55.3665 40.1296 55.2949 39.4395V38.1504C55.3665 37.4212 55.4772 36.7572 55.627 36.1582C55.7832 35.5527 55.9948 35.0319 56.2617 34.5957C56.5352 34.1595 56.8672 33.8242 57.2578 33.5898C57.6484 33.3555 58.1139 33.2383 58.6543 33.2383C59.2207 33.2383 59.7188 33.3392 60.1484 33.541C60.5781 33.7428 60.9362 34.0521 61.2227 34.4688C61.5156 34.8854 61.7337 35.4128 61.877 36.0508C62.0267 36.6823 62.1016 37.431 62.1016 38.2969ZM59.8262 39.1367V38.2969C59.8262 37.7565 59.7904 37.291 59.7188 36.9004C59.6536 36.5033 59.543 36.1777 59.3867 35.9238C59.237 35.6699 59.0449 35.4811 58.8105 35.3574C58.5827 35.2337 58.2995 35.1719 57.9609 35.1719C57.6615 35.1719 57.3978 35.2337 57.1699 35.3574C56.9421 35.4811 56.75 35.6536 56.5938 35.875C56.4375 36.0898 56.3138 36.347 56.2227 36.6465C56.1315 36.9395 56.0729 37.2585 56.0469 37.6035V39.9961C56.1055 40.4128 56.2031 40.7969 56.3398 41.1484C56.4766 41.4935 56.6751 41.7702 56.9355 41.9785C57.2025 42.1868 57.5508 42.291 57.9805 42.291C58.3125 42.291 58.5957 42.2259 58.8301 42.0957C59.0645 41.9655 59.2533 41.7702 59.3965 41.5098C59.5462 41.2493 59.6536 40.9238 59.7188 40.5332C59.7904 40.1361 59.8262 39.6706 59.8262 39.1367ZM66.3008 35.4746V44H64.0254V33.4336H66.1934L66.3008 35.4746ZM68.8496 33.3652L68.8398 35.6113C68.7096 35.5788 68.5697 35.5592 68.4199 35.5527C68.2767 35.5397 68.1335 35.5332 67.9902 35.5332C67.6777 35.5332 67.4076 35.5885 67.1797 35.6992C66.9518 35.8099 66.7598 35.9694 66.6035 36.1777C66.4473 36.3861 66.3236 36.6367 66.2324 36.9297C66.1478 37.2227 66.0957 37.5547 66.0762 37.9258L65.5879 37.9453C65.5879 37.2812 65.64 36.666 65.7441 36.0996C65.8483 35.5267 66.0046 35.0286 66.2129 34.6055C66.4277 34.1758 66.6947 33.8405 67.0137 33.5996C67.3327 33.3587 67.7038 33.2383 68.127 33.2383C68.2441 33.2383 68.3776 33.2513 68.5273 33.2773C68.6771 33.3034 68.7845 33.3327 68.8496 33.3652ZM74.2598 44.1953C73.5762 44.1953 72.9674 44.0944 72.4336 43.8926C71.8997 43.6842 71.4473 43.3783 71.0762 42.9746C70.7051 42.5645 70.4219 42.0632 70.2266 41.4707C70.0312 40.8717 69.9336 40.1784 69.9336 39.3906V38.375C69.9336 37.4831 70.0345 36.7148 70.2363 36.0703C70.4447 35.4193 70.7311 34.8854 71.0957 34.4688C71.4603 34.0521 71.89 33.7428 72.3848 33.541C72.8861 33.3392 73.4297 33.2383 74.0156 33.2383C74.6797 33.2383 75.2559 33.3457 75.7441 33.5605C76.2324 33.7754 76.6328 34.0977 76.9453 34.5273C77.2643 34.957 77.4987 35.4876 77.6484 36.1191C77.8047 36.7507 77.8828 37.4766 77.8828 38.2969V39.4395H71.0273V37.7207H75.6367V37.4766C75.6237 36.9948 75.5651 36.5814 75.4609 36.2363C75.3568 35.8848 75.1875 35.6178 74.9531 35.4355C74.7253 35.2467 74.4095 35.1523 74.0059 35.1523C73.7129 35.1523 73.4525 35.2077 73.2246 35.3184C72.9967 35.429 72.8079 35.6081 72.6582 35.8555C72.515 36.1029 72.4043 36.4349 72.3262 36.8516C72.248 37.2617 72.209 37.7695 72.209 38.375V39.3906C72.209 39.918 72.2546 40.3639 72.3457 40.7285C72.4434 41.0931 72.5866 41.3926 72.7754 41.627C72.9642 41.8548 73.1921 42.0241 73.459 42.1348C73.7324 42.2389 74.0482 42.291 74.4062 42.291C74.9336 42.291 75.3861 42.1934 75.7637 41.998C76.1478 41.7962 76.4798 41.5358 76.7598 41.2168L77.7656 42.6133C77.5768 42.8672 77.3229 43.1178 77.0039 43.3652C76.6849 43.6061 76.2975 43.8047 75.8418 43.9609C75.3926 44.1172 74.8652 44.1953 74.2598 44.1953ZM81.9844 35.4648V48.0625H79.7188V33.4336H81.7988L81.9844 35.4648ZM87.668 38.2969V39.1367C87.668 39.9635 87.5931 40.6927 87.4434 41.3242C87.2936 41.9557 87.0723 42.4863 86.7793 42.916C86.4928 43.3392 86.138 43.6582 85.7148 43.873C85.2917 44.0879 84.7969 44.1953 84.2305 44.1953C83.6966 44.1953 83.2311 44.0781 82.834 43.8438C82.4434 43.6094 82.1146 43.2806 81.8477 42.8574C81.5807 42.4342 81.3659 41.9329 81.2031 41.3535C81.0469 40.7676 80.9329 40.1296 80.8613 39.4395V38.1504C80.9329 37.4212 81.0436 36.7572 81.1934 36.1582C81.3496 35.5527 81.5612 35.0319 81.8281 34.5957C82.1016 34.1595 82.4336 33.8242 82.8242 33.5898C83.2148 33.3555 83.6803 33.2383 84.2207 33.2383C84.7871 33.2383 85.2852 33.3392 85.7148 33.541C86.1445 33.7428 86.5026 34.0521 86.7891 34.4688C87.082 34.8854 87.3001 35.4128 87.4434 36.0508C87.5931 36.6823 87.668 37.431 87.668 38.2969ZM85.3926 39.1367V38.2969C85.3926 37.7565 85.3568 37.291 85.2852 36.9004C85.2201 36.5033 85.1094 36.1777 84.9531 35.9238C84.8034 35.6699 84.6113 35.4811 84.377 35.3574C84.1491 35.2337 83.8659 35.1719 83.5273 35.1719C83.2279 35.1719 82.9642 35.2337 82.7363 35.3574C82.5085 35.4811 82.3164 35.6536 82.1602 35.875C82.0039 36.0898 81.8802 36.347 81.7891 36.6465C81.6979 36.9395 81.6393 37.2585 81.6133 37.6035V39.9961C81.6719 40.4128 81.7695 40.7969 81.9062 41.1484C82.043 41.4935 82.2415 41.7702 82.502 41.9785C82.7689 42.1868 83.1172 42.291 83.5469 42.291C83.8789 42.291 84.1621 42.2259 84.3965 42.0957C84.6309 41.9655 84.8197 41.7702 84.9629 41.5098C85.1126 41.2493 85.2201 40.9238 85.2852 40.5332C85.3568 40.1361 85.3926 39.6706 85.3926 39.1367ZM89.7676 42.8086C89.7676 42.431 89.888 42.1152 90.1289 41.8613C90.3763 41.6074 90.7148 41.4805 91.1445 41.4805C91.5742 41.4805 91.9095 41.6074 92.1504 41.8613C92.3978 42.1152 92.5215 42.431 92.5215 42.8086C92.5215 43.1732 92.3978 43.4824 92.1504 43.7363C91.9095 43.9902 91.5742 44.1172 91.1445 44.1172C90.7148 44.1172 90.3763 43.9902 90.1289 43.7363C89.888 43.4824 89.7676 43.1732 89.7676 42.8086ZM97.5703 33.4336V44H95.2949V33.4336H97.5703ZM95.1777 30.6602C95.1777 30.2956 95.2884 29.9928 95.5098 29.752C95.7311 29.5111 96.0404 29.3906 96.4375 29.3906C96.8346 29.3906 97.1439 29.5111 97.3652 29.752C97.5866 29.9928 97.6973 30.2956 97.6973 30.6602C97.6973 31.0182 97.5866 31.3177 97.3652 31.5586C97.1439 31.7995 96.8346 31.9199 96.4375 31.9199C96.0404 31.9199 95.7311 31.7995 95.5098 31.5586C95.2884 31.3177 95.1777 31.0182 95.1777 30.6602ZM102.248 35.6895V44H99.9727V33.4336H102.111L102.248 35.6895ZM101.838 38.3359H101.115C101.109 37.5742 101.19 36.8809 101.359 36.2559C101.529 35.6309 101.77 35.0938 102.082 34.6445C102.395 34.1953 102.769 33.8503 103.205 33.6094C103.648 33.362 104.139 33.2383 104.68 33.2383C105.103 33.2383 105.487 33.3099 105.832 33.4531C106.184 33.5898 106.483 33.8145 106.73 34.127C106.978 34.4395 107.167 34.8464 107.297 35.3477C107.434 35.849 107.502 36.4609 107.502 37.1836V44H105.227V37.1641C105.227 36.6693 105.171 36.2786 105.061 35.9922C104.956 35.6992 104.8 35.4909 104.592 35.3672C104.383 35.237 104.12 35.1719 103.801 35.1719C103.508 35.1719 103.238 35.2565 102.99 35.4258C102.749 35.5885 102.541 35.8164 102.365 36.1094C102.196 36.3958 102.066 36.7311 101.975 37.1152C101.883 37.4928 101.838 37.8997 101.838 38.3359Z" fill="white"/>
<path d="M60.7422 22.8984C61.4453 22.8984 62.0703 22.75 62.6172 22.4531C63.1797 22.1562 63.625 21.6953 63.9531 21.0703C64.2812 20.4297 64.4609 19.6016 64.4922 18.5859H69.625C69.5938 20.3828 69.1797 21.9531 68.3828 23.2969C67.5859 24.625 66.5234 25.6562 65.1953 26.3906C63.8828 27.1094 62.4219 27.4688 60.8125 27.4688C59.1406 27.4688 57.6797 27.2031 56.4297 26.6719C55.1953 26.125 54.1719 25.3359 53.3594 24.3047C52.5469 23.2734 51.9375 22.0234 51.5312 20.5547C51.1406 19.0703 50.9453 17.375 50.9453 15.4688V13.1719C50.9453 11.2812 51.1406 9.59378 51.5312 8.10938C51.9375 6.62497 52.5469 5.36717 53.3594 4.33587C54.1719 3.30467 55.1953 2.52338 56.4297 1.99218C57.6641 1.44528 59.1172 1.17188 60.7891 1.17188C62.5703 1.17188 64.1094 1.54688 65.4062 2.29688C66.7188 3.03118 67.7422 4.10938 68.4766 5.53118C69.2109 6.95308 69.5938 8.69527 69.625 10.7578H64.4922C64.4609 9.66407 64.2969 8.74998 64 8.01558C63.7031 7.26558 63.2812 6.70308 62.7344 6.32808C62.2031 5.95308 61.5312 5.76558 60.7188 5.76558C59.8281 5.76558 59.0938 5.93748 58.5156 6.28118C57.9531 6.60938 57.5156 7.09377 57.2031 7.73438C56.9062 8.37498 56.6953 9.15618 56.5703 10.0781C56.4609 10.9844 56.4062 12.0156 56.4062 13.1719V15.4688C56.4062 16.6562 56.4609 17.7109 56.5703 18.6328C56.6797 19.5391 56.8828 20.3125 57.1797 20.9531C57.4922 21.5938 57.9375 22.0781 58.5156 22.4062C59.0938 22.7344 59.8359 22.8984 60.7422 22.8984ZM85.6328 21.8438V9.21087C85.6328 8.33587 85.5078 7.63278 85.2578 7.10158C85.0234 6.57028 84.6719 6.18748 84.2031 5.95308C83.75 5.70308 83.1797 5.57808 82.4922 5.57808C81.7734 5.57808 81.1641 5.72657 80.6641 6.02337C80.1797 6.32027 79.8125 6.72658 79.5625 7.24218C79.3125 7.74218 79.1875 8.32028 79.1875 8.97658H73.7266C73.7266 7.96088 73.9297 6.98438 74.3359 6.04688C74.7578 5.10938 75.3594 4.27338 76.1406 3.53908C76.9219 2.80468 77.8672 2.22658 78.9766 1.80468C80.0859 1.38278 81.3203 1.17188 82.6797 1.17188C84.3047 1.17188 85.75 1.44528 87.0156 1.99218C88.2812 2.52338 89.2734 3.39057 89.9922 4.59377C90.7266 5.78117 91.0938 7.34378 91.0938 9.28118V21.1172C91.0938 22.2891 91.1641 23.3359 91.3047 24.2578C91.4609 25.1641 91.6719 25.9531 91.9375 26.625V27H86.3828C86.1328 26.3906 85.9453 25.6094 85.8203 24.6562C85.6953 23.7031 85.6328 22.7656 85.6328 21.8438ZM86.3594 11.5547L86.3828 15.0938H83.7578C82.9766 15.0938 82.2734 15.2031 81.6484 15.4219C81.0234 15.625 80.4922 15.9219 80.0547 16.3125C79.6328 16.6875 79.3047 17.1484 79.0703 17.6953C78.8516 18.2422 78.7422 18.8438 78.7422 19.5C78.7422 20.2969 78.8516 20.9453 79.0703 21.4453C79.3047 21.9453 79.6406 22.3203 80.0781 22.5703C80.5312 22.8047 81.0781 22.9219 81.7188 22.9219C82.5938 22.9219 83.3516 22.7344 83.9922 22.3594C84.6484 21.9688 85.1484 21.5 85.4922 20.9531C85.8516 20.4062 85.9922 19.9062 85.9141 19.4531L87.1562 21.7266C87.0312 22.3203 86.7969 22.9453 86.4531 23.6016C86.125 24.2578 85.6953 24.8828 85.1641 25.4766C84.6328 26.0703 83.9922 26.5547 83.2422 26.9297C82.4922 27.2891 81.625 27.4688 80.6406 27.4688C79.2188 27.4688 77.9531 27.1719 76.8438 26.5781C75.7344 25.9844 74.8594 25.1328 74.2188 24.0234C73.5938 22.8984 73.2812 21.5547 73.2812 19.9922C73.2812 18.7266 73.4922 17.5781 73.9141 16.5469C74.3359 15.5156 74.9609 14.6328 75.7891 13.8984C76.6172 13.1484 77.6562 12.5703 78.9062 12.1641C80.1719 11.7578 81.6484 11.5547 83.3359 11.5547H86.3594ZM102.156 6.53908V27H96.6953V1.64058H101.898L102.156 6.53908ZM108.273 1.47658L108.25 6.86718C107.938 6.78908 107.602 6.74218 107.242 6.72658C106.898 6.69528 106.555 6.67968 106.211 6.67968C105.461 6.67968 104.812 6.81248 104.266 7.07808C103.719 7.34378 103.258 7.72658 102.883 8.22658C102.508 8.72658 102.211 9.32808 101.992 10.0312C101.789 10.7344 101.664 11.5312 101.617 12.4219L100.445 12.4688C100.445 10.875 100.57 9.39838 100.82 8.03908C101.07 6.66408 101.445 5.46878 101.945 4.45308C102.461 3.42188 103.102 2.61718 103.867 2.03908C104.633 1.46088 105.523 1.17188 106.539 1.17188C106.82 1.17188 107.141 1.20308 107.5 1.26558C107.859 1.32808 108.117 1.39838 108.273 1.47658ZM121.258 27.4688C119.617 27.4688 118.156 27.2266 116.875 26.7422C115.594 26.2422 114.508 25.5078 113.617 24.5391C112.727 23.5547 112.047 22.3516 111.578 20.9297C111.109 19.4922 110.875 17.8281 110.875 15.9375V13.5C110.875 11.3594 111.117 9.51557 111.602 7.96877C112.102 6.40617 112.789 5.12498 113.664 4.12498C114.539 3.12498 115.57 2.38277 116.758 1.89837C117.961 1.41407 119.266 1.17188 120.672 1.17188C122.266 1.17188 123.648 1.42967 124.82 1.94527C125.992 2.46087 126.953 3.23438 127.703 4.26558C128.469 5.29688 129.031 6.57027 129.391 8.08587C129.766 9.60157 129.953 11.3438 129.953 13.3125V16.0547H113.5V11.9297H124.562V11.3438C124.531 10.1875 124.391 9.19528 124.141 8.36718C123.891 7.52338 123.484 6.88277 122.922 6.44527C122.375 5.99217 121.617 5.76558 120.648 5.76558C119.945 5.76558 119.32 5.89838 118.773 6.16408C118.227 6.42968 117.773 6.85938 117.414 7.45308C117.07 8.04688 116.805 8.84377 116.617 9.84377C116.43 10.8281 116.336 12.0469 116.336 13.5V15.9375C116.336 17.2031 116.445 18.2734 116.664 19.1484C116.898 20.0234 117.242 20.7422 117.695 21.3047C118.148 21.8516 118.695 22.2578 119.336 22.5234C119.992 22.7734 120.75 22.8984 121.609 22.8984C122.875 22.8984 123.961 22.6641 124.867 22.1953C125.789 21.7109 126.586 21.0859 127.258 20.3203L129.672 23.6719C129.219 24.2812 128.609 24.8828 127.844 25.4766C127.078 26.0547 126.148 26.5312 125.055 26.9062C123.977 27.2812 122.711 27.4688 121.258 27.4688ZM144.039 27.4688C142.398 27.4688 140.938 27.2266 139.656 26.7422C138.375 26.2422 137.289 25.5078 136.398 24.5391C135.508 23.5547 134.828 22.3516 134.359 20.9297C133.891 19.4922 133.656 17.8281 133.656 15.9375V13.5C133.656 11.3594 133.898 9.51557 134.383 7.96877C134.883 6.40617 135.57 5.12498 136.445 4.12498C137.32 3.12498 138.352 2.38277 139.539 1.89837C140.742 1.41407 142.047 1.17188 143.453 1.17188C145.047 1.17188 146.43 1.42967 147.602 1.94527C148.773 2.46087 149.734 3.23438 150.484 4.26558C151.25 5.29688 151.812 6.57027 152.172 8.08587C152.547 9.60157 152.734 11.3438 152.734 13.3125V16.0547H136.281V11.9297H147.344V11.3438C147.312 10.1875 147.172 9.19528 146.922 8.36718C146.672 7.52338 146.266 6.88277 145.703 6.44527C145.156 5.99217 144.398 5.76558 143.43 5.76558C142.727 5.76558 142.102 5.89838 141.555 6.16408C141.008 6.42968 140.555 6.85938 140.195 7.45308C139.852 8.04688 139.586 8.84377 139.398 9.84377C139.211 10.8281 139.117 12.0469 139.117 13.5V15.9375C139.117 17.2031 139.227 18.2734 139.445 19.1484C139.68 20.0234 140.023 20.7422 140.477 21.3047C140.93 21.8516 141.477 22.2578 142.117 22.5234C142.773 22.7734 143.531 22.8984 144.391 22.8984C145.656 22.8984 146.742 22.6641 147.648 22.1953C148.57 21.7109 149.367 21.0859 150.039 20.3203L152.453 23.6719C152 24.2812 151.391 24.8828 150.625 25.4766C149.859 26.0547 148.93 26.5312 147.836 26.9062C146.758 27.2812 145.492 27.4688 144.039 27.4688ZM162.578 6.53908V27H157.117V1.64058H162.32L162.578 6.53908ZM168.695 1.47658L168.672 6.86718C168.359 6.78908 168.023 6.74218 167.664 6.72658C167.32 6.69528 166.977 6.67968 166.633 6.67968C165.883 6.67968 165.234 6.81248 164.688 7.07808C164.141 7.34378 163.68 7.72658 163.305 8.22658C162.93 8.72658 162.633 9.32808 162.414 10.0312C162.211 10.7344 162.086 11.5312 162.039 12.4219L160.867 12.4688C160.867 10.875 160.992 9.39838 161.242 8.03908C161.492 6.66408 161.867 5.46878 162.367 4.45308C162.883 3.42188 163.523 2.61718 164.289 2.03908C165.055 1.46088 165.945 1.17188 166.961 1.17188C167.242 1.17188 167.562 1.20308 167.922 1.26558C168.281 1.32808 168.539 1.39838 168.695 1.47658Z" fill="#77DD77"/>
<path d="M23.7422 34.8984C24.4453 34.8984 25.0703 34.75 25.6172 34.4531C26.1797 34.1562 26.625 33.6953 26.9531 33.0703C27.2812 32.4297 27.4609 31.6016 27.4922 30.5859H32.625C32.5938 32.3828 32.1797 33.9531 31.3828 35.2969C30.5859 36.625 29.5234 37.6562 28.1953 38.3906C26.8828 39.1094 25.4219 39.4688 23.8125 39.4688C22.1406 39.4688 20.6797 39.2031 19.4297 38.6719C18.1953 38.125 17.1719 37.3359 16.3594 36.3047C15.5469 35.2734 14.9375 34.0234 14.5312 32.5547C14.1406 31.0703 13.9453 29.375 13.9453 27.4688V25.1719C13.9453 23.2812 14.1406 21.5938 14.5312 20.1094C14.9375 18.625 15.5469 17.3672 16.3594 16.3359C17.1719 15.3047 18.1953 14.5234 19.4297 13.9922C20.6641 13.4453 22.1172 13.1719 23.7891 13.1719C25.5703 13.1719 27.1094 13.5469 28.4062 14.2969C29.7188 15.0312 30.7422 16.1094 31.4766 17.5312C32.2109 18.9531 32.5938 20.6953 32.625 22.7578H27.4922C27.4609 21.6641 27.2969 20.75 27 20.0156C26.7031 19.2656 26.2812 18.7031 25.7344 18.3281C25.2031 17.9531 24.5312 17.7656 23.7188 17.7656C22.8281 17.7656 22.0938 17.9375 21.5156 18.2812C20.9531 18.6094 20.5156 19.0938 20.2031 19.7344C19.9062 20.375 19.6953 21.1562 19.5703 22.0781C19.4609 22.9844 19.4062 24.0156 19.4062 25.1719V27.4688C19.4062 28.6562 19.4609 29.7109 19.5703 30.6328C19.6797 31.5391 19.8828 32.3125 20.1797 32.9531C20.4922 33.5938 20.9375 34.0781 21.5156 34.4062C22.0938 34.7344 22.8359 34.8984 23.7422 34.8984Z" fill="#77DD77"/>
<path d="M32 2.5H15C8.09644 2.5 2.5 8.09644 2.5 15V36C2.5 42.9036 8.09644 48.5 15 48.5H32C38.9036 48.5 44.5 42.9036 44.5 36V15C44.5 8.09644 38.9036 2.5 32 2.5Z" stroke="#77DD77" stroke-width="5"/>
</svg>
